<svg width="80" height="78" viewBox="0 0 80 78" fill="none" xmlns="http://www.w3.org/2000/svg">
<ellipse cx="40" cy="39" rx="40" ry="39" fill="white"/>
<g clip-path="url(#clip0_328_266)">
<path d="M25.9875 35.875C28.1507 35.875 30.2654 36.5165 32.064 37.7183C33.8627 38.9201 35.2646 40.6283 36.0924 42.6269C36.9203 44.6255 37.1369 46.8246 36.7148 48.9463C36.2928 51.068 35.2511 53.0168 33.7215 54.5465C32.1918 56.0761 30.243 57.1178 28.1213 57.5398C25.9996 57.9619 23.8005 57.7453 21.8019 56.9174C19.8033 56.0896 18.0951 54.6877 16.8933 52.8891C15.6915 51.0904 15.05 48.9757 15.05 46.8125L15 45.25C15 39.4484 17.3047 33.8844 21.407 29.782C25.5094 25.6797 31.0734 23.375 36.875 23.375V29.625C34.8222 29.6195 32.7887 30.021 30.892 30.8062C28.9953 31.5915 27.2731 32.745 25.825 34.2C25.2622 34.7618 24.743 35.3656 24.2719 36.0063C24.8313 35.9188 25.4031 35.8719 25.9844 35.8719L25.9875 35.875ZM54.1125 35.875C56.2757 35.875 58.3904 36.5165 60.189 37.7183C61.9877 38.9201 63.3896 40.6283 64.2174 42.6269C65.0453 44.6255 65.2619 46.8246 64.8398 48.9463C64.4178 51.068 63.3761 53.0168 61.8465 54.5465C60.3168 56.0761 58.368 57.1178 56.2463 57.5398C54.1246 57.9619 51.9255 57.7453 49.9269 56.9174C47.9283 56.0896 46.2201 54.6877 45.0183 52.8891C43.8165 51.0904 43.175 48.9757 43.175 46.8125L43.125 45.25C43.125 39.4484 45.4297 33.8844 49.532 29.782C53.6344 25.6797 59.1984 23.375 65 23.375V29.625C62.9472 29.6195 60.9137 30.021 59.017 30.8062C57.1203 31.5915 55.3981 32.745 53.95 34.2C53.3872 34.7618 52.868 35.3656 52.3969 36.0063C52.9563 35.9188 53.5281 35.875 54.1125 35.875Z" fill="black"/>
</g>
<defs>
<clipPath id="clip0_328_266">
<rect width="50" height="50" fill="white" transform="translate(15 14)"/>
</clipPath>
</defs>
</svg>
